<?xml version="1.0" encoding="UTF-8"?><svg xmlns="http://www.w3.org/2000/svg" viewBox="0 0 92.07 92.11"><defs><style>.d{fill:#cc3d38;}</style></defs><g id="a"/><g id="b"><g id="c"><path class="d" d="M20.56,73.47l31.13-29.49c-1.54-4.93-3.24-3.09-5.04-1.27-8.08,8.18-16.2,16.32-24.26,24.52-1.16,1.18-2.1,2.59-3.72,4.63-3.28-2.82-6.36-4.82-8.58-7.52-5.21-6.36-4.56-9.17,2.41-13.36,9.7-5.82,19.41-11.62,29.22-17.48-1-3.53-2.9-2.92-5.22-1.53-8.98,5.41-18,10.76-27.02,16.12-1.56,.92-3.16,1.76-4.86,2.7-.75-1.19-1.45-2.12-1.98-3.14-4.38-8.32-3.68-10.45,4.79-14.12,16.64-7.21,33.33-14.31,49.92-21.63,1.96-.86,3.81-2.55,5.06-4.32C66.44,1.87,72.79-1.03,79.26,.33c6.36,1.34,11.34,6.42,12.55,12.8,1.19,6.28-1.74,12.53-7.19,16.44-1.88,1.35-3.65,3.36-4.57,5.46-7.52,17.05-14.82,34.2-22.2,51.31-2.71,6.28-3.75,6.81-10.09,4.54-2.3-.82-4.41-2.15-7.09-3.49,6.53-10.76,12.8-21.12,19.1-31.46,1.27-2.08,2.63-4.08-1.16-5.72-6.3,10.34-12.61,20.67-18.91,31-2.99,4.9-4.04,5.36-8.85,1.9-3.42-2.47-6.23-5.78-10.28-9.64ZM54.95,25.45l-7.38,4.68,4.69,7.4c1.55-1.8,2.51-2.94,3.5-4.07,1.05-1.19,2.13-2.35,3.28-3.62l-4.1-4.39Zm5.58,20.32c6.96-8,7.02-8.83,2.42-11.52l-7.64,5.6,5.22,5.92Zm6.99,6.65c4.73-7.54,4.96-9.11,1.54-11.58l-5.12,8.26,3.58,3.33Zm-28.81-28.45l4.01,4.28,9.18-5.75c-5.22-3.98-8.26,.96-13.19,1.46Zm30.02-3.31c-3.83-1.85-4.49-1.61-10.04,3.11l3.17,2.85,6.87-5.95Zm-3.6,9.13c.62,.81,.95,1.37,1.4,1.81,.57,.57,1.22,1.05,1.84,1.57,4.8-5.53,5.11-6.49,2.74-9.36-1.97,1.98-3.92,3.92-5.97,5.98Z"/></g></g></svg>