<?xml version="1.0" encoding="UTF-8"?><svg xmlns="http://www.w3.org/2000/svg" viewBox="0 0 100 100"><defs><style>.d{fill:#fff;}.e{fill:#cc3d38;}</style></defs><g id="a"/><g id="b"><g id="c"><g><path class="d" d="M100,100c-33.33,0-66.67,0-100,0C0,66.67,0,33.33,0,0c33.33,0,66.67,0,100,0,0,33.33,0,66.67,0,100Zm-19.68-47.7c.46-2.7,1.89-5.64,.97-6.99-1.2-1.76-4.37-3.33-6.49-3.1-5.71,.62-9.03-1.57-11.11-6.63-.75-1.82-1.7-3.8-3.13-5.06-2.03-1.78-4.5-4.05-6.93-4.23-14.9-1.13-31.32,2.91-38.59,19.82-.75,1.74-.12,5.04,1.16,6.46,2.11,2.35,4.97,1.34,6.87-1.04,1.76-2.21,3.44-4.53,4.8-6.99,2.07-3.75,5.36-4.91,9.75-5.47-1.9,3.77-3.67,6.96-5.13,10.3-1.05,2.41-2.74,5.2-2.31,7.48,2.31,12.45-3.11,20.94-12.93,27.51-.41,.27-.75,.66-1.09,1.03-2.48,2.66-3.18,5.64-.65,8.48,2.68,3.01,5.86,2.8,8.82,.2,3.38-2.96,6.48-6.29,10.09-8.94,5.7-4.19,8.88-9.26,7.67-16.54-.03-.19,.34-.45,.64-.82,4.77,3.47,8.82,7.25,9.37,13.75,.29,3.45,.84,7.16,2.46,10.1,1.09,1.98,4.32,3.98,6.44,3.83,1.76-.12,4.97-3.71,4.67-5.18-1.81-8.93-1.37-18.58-8.36-26.03-8.78-9.35-8.59-9.53-1.26-21.46,3.23,7.71,8.86,10.84,17.35,8.88-6.29,6.8-6.85,12.03-2.29,16.04,3.88,3.42,9.62,2.91,12.86-1.14,3.84-4.79,2.36-9.73-3.65-14.26Zm-22.34-28.34c5.51,0,10.11-4.7,9.98-10.2-.13-5.31-4.63-9.72-9.95-9.73-5.52,0-10.11,4.68-9.97,10.19,.13,5.32,4.63,9.73,9.94,9.73Z"/><path class="e" d="M80.32,52.3c6.01,4.52,7.49,9.47,3.65,14.26-3.25,4.05-8.98,4.56-12.86,1.14-4.56-4.01-3.99-9.24,2.29-16.04-8.48,1.96-14.12-1.16-17.35-8.88-7.32,11.93-7.52,12.11,1.26,21.46,6.99,7.45,6.55,17.1,8.36,26.03,.3,1.47-2.91,5.05-4.67,5.18-2.12,.15-5.35-1.85-6.44-3.83-1.61-2.94-2.17-6.66-2.46-10.1-.54-6.5-4.59-10.28-9.37-13.75-.3,.37-.67,.63-.64,.82,1.21,7.27-1.97,12.35-7.67,16.54-3.6,2.65-6.71,5.98-10.09,8.94-2.97,2.59-6.14,2.8-8.82-.2-2.53-2.84-1.84-5.83,.65-8.48,.34-.36,.68-.75,1.09-1.03,9.82-6.58,15.24-15.06,12.93-27.51-.42-2.28,1.26-5.07,2.31-7.48,1.45-3.33,3.23-6.52,5.13-10.3-4.39,.56-7.68,1.72-9.75,5.47-1.36,2.46-3.04,4.78-4.8,6.99-1.9,2.39-4.75,3.39-6.87,1.04-1.28-1.42-1.9-4.72-1.16-6.46,7.26-16.91,23.69-20.95,38.59-19.82,2.42,.18,4.9,2.45,6.93,4.23,1.43,1.26,2.38,3.23,3.13,5.06,2.08,5.06,5.4,7.25,11.11,6.63,2.12-.23,5.29,1.34,6.49,3.1,.92,1.35-.51,4.3-.97,6.99Z"/><path class="e" d="M57.98,23.96c-5.31,0-9.81-4.41-9.94-9.73-.14-5.51,4.46-10.2,9.97-10.19,5.32,0,9.82,4.41,9.95,9.73,.13,5.5-4.47,10.2-9.98,10.2Z"/></g></g></g></svg>