<?xml version="1.0" encoding="UTF-8"?><svg xmlns="http://www.w3.org/2000/svg" viewBox="0 0 100 100"><defs><style>.d{fill:#fff;}.e{fill:#cc3d38;}.f{opacity:.6;}.f,.g{fill:#fab99a;}.g{opacity:.62;}</style></defs><g id="a"/><g id="b"><g id="c"><g><path class="d" d="M100,100H0C0,66.67,0,33.33,0,0c33.33,0,66.67,0,100,0,0,33.33,0,66.67,0,100ZM56.53,39.69c4.87,9.29,12.76,11.04,21.72,9.64,1.78-.28,3.33-1.98,4.99-3.02-1.55-1.15-3.31-3.49-4.61-3.26-8.75,1.56-13.75-2.86-17.59-9.71-.71-1.27-1.68-2.41-2.65-3.5-3.77-4.26-8.42-4.75-12.59-.94-4.61,4.21-9.08,8.61-13.31,13.18-3.93,4.24-3.21,9.47,1.6,12.71,3.2,2.15,6.91,3.61,9.9,6,1.65,1.32,3.01,3.84,3.19,5.93,.34,3.97-.48,8.02-.33,12.03,.04,1.24,1.63,2.44,2.51,3.65,1.31-.98,3.56-1.79,3.79-2.98,2.01-10.36,7.22-21.42-5.15-29.34-.25-.16-.27-.65-.17-.39,2.81-3.22,5.44-6.23,8.72-9.98Zm-31.32,49.28c8.05-.12,14.8-6.92,14.75-14.88-.04-8.19-7.19-14.99-15.46-14.71-8.08,.27-14.67,7.16-14.47,15.13,.2,7.97,7.14,14.58,15.17,14.46Zm49.72,0c8.05,.04,14.91-6.63,15.03-14.61,.12-7.97-6.55-14.8-14.62-14.99-8.28-.19-15.36,6.68-15.31,14.87,.05,7.95,6.87,14.7,14.91,14.74ZM61.4,9.93c-4.39,.14-8.03,3.85-8.04,8.19,0,4.56,3.97,8.37,8.56,8.22,4.61-.15,8.33-4.2,8.02-8.74-.3-4.35-4.16-7.81-8.54-7.67Z"/><path class="e" d="M56.53,39.69c-3.28,3.76-5.91,6.76-8.72,9.98-.1-.26-.07,.23,.17,.39,12.37,7.93,7.16,18.98,5.15,29.34-.23,1.19-2.48,1.99-3.79,2.98-.88-1.22-2.47-2.41-2.51-3.65-.14-4,.68-8.06,.33-12.03-.18-2.09-1.54-4.61-3.19-5.93-2.98-2.38-6.7-3.84-9.9-6-4.81-3.24-5.53-8.46-1.6-12.71,4.24-4.58,8.7-8.97,13.31-13.18,4.17-3.81,8.82-3.32,12.59,.94,.97,1.1,1.95,2.24,2.65,3.5,3.84,6.85,8.84,11.28,17.59,9.71,1.3-.23,3.06,2.11,4.61,3.26-1.66,1.04-3.21,2.75-4.99,3.02-8.95,1.4-16.85-.35-21.72-9.64Z"/><path class="e" d="M25.21,88.98c-8.03,.12-14.97-6.49-15.17-14.46-.2-7.97,6.38-14.86,14.47-15.13,8.27-.28,15.42,6.52,15.46,14.71,.04,7.96-6.7,14.76-14.75,14.88Zm-.09-23.01c-4.42-.07-8.19,3.44-8.41,7.81-.23,4.58,3.52,8.54,8.16,8.61,4.64,.07,8.51-3.77,8.42-8.36-.08-4.37-3.76-7.99-8.17-8.06Z"/><path class="e" d="M74.93,88.98c-8.03-.04-14.86-6.78-14.91-14.74-.05-8.19,7.03-15.06,15.31-14.87,8.08,.19,14.74,7.02,14.62,14.99-.12,7.98-6.98,14.64-15.03,14.61Zm-.11-23.01c-4.42,.1-8.07,3.74-8.12,8.1-.05,4.59,3.84,8.41,8.47,8.31,4.64-.1,8.37-4.08,8.11-8.65-.25-4.38-4.04-7.86-8.46-7.76Z"/><path class="e" d="M61.4,9.93c4.38-.14,8.24,3.32,8.54,7.67,.31,4.54-3.4,8.58-8.02,8.74-4.59,.15-8.57-3.66-8.56-8.22,0-4.33,3.64-8.04,8.04-8.19Z"/><path class="f" d="M25.12,65.96c4.42,.07,8.09,3.69,8.17,8.06,.09,4.59-3.78,8.43-8.42,8.36-4.64-.07-8.38-4.02-8.16-8.61,.21-4.37,3.98-7.88,8.41-7.81Z"/><path class="g" d="M74.82,65.97c4.42-.1,8.21,3.38,8.46,7.76,.26,4.58-3.47,8.55-8.11,8.65-4.63,.1-8.52-3.72-8.47-8.31,.05-4.37,3.7-8.01,8.12-8.1Z"/></g></g></g></svg>