<?xml version="1.0" encoding="UTF-8"?><svg xmlns="http://www.w3.org/2000/svg" viewBox="0 0 67.5 84.16"><defs><style>.d{fill:#cc3d38;}</style></defs><g id="a"/><g id="b"><g id="c"><g><path class="d" d="M5.73,34.22c18.01-6.33,34.9-12.15,51.65-18.34,1.76-.65,2.61-3.58,4.08-5.29,.89-1.04,2.25-2.57,3.19-2.43,1.03,.15,2.39,1.87,2.6,3.08,.72,4.31,.24,8.15-4.94,9.73-5.37,1.64-10.57,3.86-15.96,5.44-4.03,1.18-5.95,3.05-5.27,7.6,.79,5.26,.87,10.63,1.33,16.8-5.93,0-12.32,1.68-16.81-.52-3.79-1.86-5.37-8.22-8.26-13.15-.5,.09-1.71,.26-2.89,.54-4.46,1.04-10.39,5.7-12.96-.13C-.89,32.17,.32,25.17,.23,18.89c0-.54,2.43-1.84,2.96-1.52,1.12,.68,2.34,2.16,2.43,3.39,.3,4.06,.11,8.16,.11,13.46Z"/><path class="d" d="M32.58,61.77c-4.25,4.76-8.08,9.03-12.06,13.49,.37,.58,1.23,1.38,1.41,2.3,.41,2.16,.49,4.39,.7,6.59-1.84-.92-3.73-1.77-5.51-2.8-.61-.36-1.09-1.13-1.39-1.81-1.82-4.18-6.23-10.22-4.84-12.23,3.9-5.66,8.04-11.56,17.13-12.2,12.28-.87,20.54,2.47,25.55,13.9,1.62,3.71,4.62,6.79,6.53,10.41,.62,1.16-.22,3.1-.39,4.68-1.52-.49-3.73-.5-4.44-1.54-3.33-4.91-6.2-9.11-13.54-9.26-2.78-.06-5.42-6.58-9.15-11.52Z"/><path class="d" d="M35,10.81c-.04,5.78-5.04,10.71-10.8,10.66-5.78-.05-10.68-5.02-10.63-10.82C13.61,4.87,18.58-.05,24.36,0c5.78,.05,10.69,5.03,10.64,10.81Z"/></g></g></g></svg>