<?xml version="1.0" encoding="UTF-8"?><svg xmlns="http://www.w3.org/2000/svg" viewBox="0 0 100 100"><defs><style>.d{fill:#fff;}.e{fill:#cc3d38;}</style></defs><g id="a"/><g id="b"><g id="c"><g><path class="d" d="M55.67,0h44.33c0,33.33,0,66.67,0,100-33.33,0-66.67,0-100,0C0,66.67,0,33.33,0,0c16.49,0,32.99,0,49.48,0-1.14,.98-2.38,1.86-3.41,2.95-3.28,3.45-3.32,8.61-.2,12.07,3.14,3.48,7.54,3.84,11.47,1.05l-5.99-3.98,.76-1.36c1.83,.67,3.63,1.4,5.48,2.01,3.09,1.02,6.28,1.58,7.89-2.15,1.52-3.51-.55-5.91-3.42-7.58-2.03-1.18-4.27-2.02-6.41-3Zm12.36,28.57c-9.17-4.62-17.49-9.17-26.16-12.94-2.29-1-6.23-.42-8.36,1-2.68,1.79-4.25,5.22-6.35,7.9-2.5,3.21-4.68,6.79-7.67,9.49-5.67,5.12-5.01,11.57,2.12,14.6,2.63,1.11,5.55,1.52,9.27,2.5-5.35,10.84-4.64,23.97-14.77,32.62-2.06,1.76-3.93,3.94-5.29,6.28-1.18,2.03-2.42,4.81-1.88,6.78,.33,1.19,3.99,2.05,6.16,2.06,24.22,.14,48.45,.09,72.67,.08,1.5,0,3.01-.15,5.1-.26,0-17.74,.12-35.21-.1-52.67-.05-3.63-3.32-4.89-5.93-3.03-4.51,3.2-8.49,7.17-12.51,11.02-1.69,1.62-2.9,3.76-4.33,5.66-.58-1.68-.29-2.85-.35-4.01-.39-7.36,1.31-13.51,8.31-17.56,6.93-4.02,6.86-7.4,.21-12.18,1.11-3.5,2.24-7.06,3.49-10.99l-7.79-2.83c-1.92,5.41-3.68,10.36-5.85,16.48Z"/><path class="e" d="M55.67,0c2.14,.99,4.37,1.83,6.41,3,2.87,1.66,4.93,4.06,3.42,7.58-1.61,3.73-4.8,3.17-7.89,2.15-1.85-.61-3.66-1.34-5.48-2.01l-.76,1.36,5.99,3.98c-3.93,2.79-8.33,2.43-11.47-1.05-3.13-3.46-3.08-8.62,.2-12.07C47.1,1.86,48.34,.98,49.48,0h6.19Z"/><path class="e" d="M68.03,28.57c2.17-6.12,3.93-11.07,5.85-16.48l7.79,2.83c-1.25,3.93-2.38,7.49-3.49,10.99,6.65,4.79,6.72,8.17-.21,12.18-7,4.06-8.7,10.2-8.31,17.56,.06,1.15-.23,2.33,.35,4.01,1.43-1.9,2.63-4.04,4.33-5.66,4.01-3.85,8-7.81,12.51-11.02,2.62-1.86,5.89-.6,5.93,3.03,.22,17.46,.1,34.92,.1,52.67-2.1,.11-3.6,.26-5.1,.26-24.22,.01-48.45,.06-72.67-.08-2.17-.01-5.83-.87-6.16-2.06-.54-1.97,.7-4.74,1.88-6.78,1.36-2.34,3.22-4.52,5.29-6.28,10.14-8.65,9.43-21.78,14.77-32.62-3.72-.98-6.65-1.39-9.27-2.5-7.13-3.03-7.79-9.47-2.12-14.6,2.98-2.69,5.16-6.28,7.67-9.49,2.1-2.69,3.67-6.11,6.35-7.9,2.13-1.42,6.07-2,8.36-1,8.67,3.76,16.99,8.32,26.16,12.94ZM18.27,86.57c1.39-.58,2.76-1.19,4.16-1.72,9.33-3.53,18.75-6.67,28.94-5.89,9.74,.74,18.11-2.58,25.83-8.23,8.08-5.91,8.65-15.93,13.23-23.75,.16-.28-.28-.91-.62-1.94-6.06,.67-9.86,4.62-12.52,9.33-3.85,6.83-9.82,10.32-16.89,12.43-4.42,1.32-8.92,2.41-13.44,3.38-11.29,2.42-21.62,6.51-28.69,16.4Zm50.12-53.84l.31-1.74c-5.46-2.33-10.81-5.05-16.46-6.78-1.79-.55-5.07,.92-6.46,2.52-2.73,3.13-1.72,13.71,1.2,17.61l5.61-12.88c5.72,.46,10.76,.86,15.8,1.26Zm-7.43,16.75l3.91-11.59c-3.64-1.51-6.86-2.84-10.46-4.33l-4.98,12.13c4.05,1.33,7.42,2.44,11.53,3.8Zm5.9,5.36c-7.22-4.16-12.96-3.58-18.78,.37,2.62,2.6,10.79,.71,6.98,8.86,3.75-2.94,7.51-5.87,11.8-9.23Zm-48.98-13.6c11.03-2.44,15.2-8.77,15.66-20.98l-15.66,20.98Zm24.61,15.86l-3.72,11.78c7.43,.41,11.21-3.03,13.64-9.12l-9.93-2.66Zm-5.17,5.37c-7.59,2.13-10.72,5.73-10.84,12.35,5.18-2.59,11.53-4.11,10.84-12.35ZM75.92,13.89c-2.05,5.99-3.55,10.35-5.45,15.89,6.4-2.63,5.5-7.95,7.37-11.6,.3-.58-.8-1.89-1.93-4.29Zm-6.57,25.54l-2.1,.04c-.46,1.28-1.11,2.52-1.35,3.84-.44,2.43-.63,4.91-.93,7.37,1.38-2.19,3-4.28,4.04-6.62,.59-1.32,.25-3.07,.34-4.62Z"/><path class="d" d="M18.27,86.57c7.07-9.89,17.4-13.99,28.69-16.4,4.51-.97,9.02-2.06,13.44-3.38,7.07-2.11,13.04-5.6,16.89-12.43,2.65-4.7,6.45-8.65,12.52-9.33,.35,1.03,.79,1.66,.62,1.94-4.57,7.82-5.14,17.84-13.23,23.75-7.72,5.65-16.09,8.97-25.83,8.23-10.19-.78-19.61,2.36-28.94,5.89-1.4,.53-2.78,1.15-4.16,1.72Z"/><path class="d" d="M68.4,32.73c-5.04-.4-10.07-.81-15.8-1.26l-5.61,12.88c-2.92-3.9-3.93-14.48-1.2-17.61,1.39-1.6,4.67-3.07,6.46-2.52,5.65,1.73,10.99,4.45,16.46,6.78l-.31,1.74Z"/><path class="d" d="M60.97,49.48c-4.11-1.35-7.48-2.46-11.53-3.8l4.98-12.13c3.6,1.49,6.82,2.82,10.46,4.33l-3.91,11.59Z"/><path class="d" d="M66.87,54.83c-4.29,3.35-8.04,6.29-11.8,9.23,3.81-8.15-4.36-6.26-6.98-8.86,5.83-3.95,11.56-4.53,18.78-.37Z"/><path class="d" d="M17.89,41.23l15.66-20.98c-.47,12.21-4.63,18.54-15.66,20.98Z"/><path class="d" d="M42.5,57.09l9.93,2.66c-2.43,6.09-6.22,9.53-13.64,9.12l3.72-11.78Z"/><path class="d" d="M37.33,62.45c.69,8.24-5.65,9.76-10.84,12.35,.12-6.62,3.25-10.22,10.84-12.35Z"/><path class="d" d="M75.92,13.89c1.12,2.41,2.22,3.71,1.93,4.29-1.87,3.65-.97,8.97-7.37,11.6,1.9-5.54,3.39-9.9,5.45-15.89Z"/><path class="d" d="M69.35,39.44c-.08,1.55,.26,3.3-.34,4.62-1.05,2.34-2.67,4.43-4.04,6.62,.3-2.46,.49-4.94,.93-7.37,.24-1.32,.88-2.56,1.35-3.84l2.1-.04Z"/></g></g></g></svg>