<?xml version="1.0" encoding="UTF-8"?><svg xmlns="http://www.w3.org/2000/svg" viewBox="0 0 77.59 86.38"><defs><style>.d,.e{fill:#cc3d38;}.e{stroke:#cc3d38;stroke-miterlimit:10;}</style></defs><g id="a"/><g id="b"><g id="c"><g><path class="d" d="M38.99,26.2c-5.45-3.7-9.99-3.34-14.37,.86-1.89,1.82-4.14,3.52-6.55,4.47-1.43,.56-4.26,.14-5.04-.91-.78-1.04-.46-4.22,.54-5.05,4.46-3.71,9.33-6.94,14.09-10.27,.64-.45,1.65-.89,2.3-.7,7.6,2.15,15.3,4.07,22.7,6.81,3.67,1.36,4.01,4.97,2.25,8.47-2.98,5.93-5.96,11.85-9.05,18.01,3.31,2.96,6.77,5.6,9.62,8.79,1.33,1.49,2.25,4.13,2,6.07-.79,6.08-2.3,12.07-3.38,18.12-.65,3.61-2.37,6.23-6.27,5.32-3.85-.89-4.32-4.05-3.49-7.57,.69-2.91,.73-6.03,1.79-8.77,2.14-5.55,.05-8.6-4.95-10.87-3-1.36-5.71-3.38-8.51-5.18-5.07-3.27-6.06-7.11-3.04-12.25,3.02-5.15,6.2-10.2,9.34-15.35Z"/><path class="d" d="M24.22,51.8c3.24,2.79,5.71,4.91,8.12,6.99-3.01,7.3-8.16,10.81-16.29,9.76-3.59-.46-7.41,.48-10.88-.32-1.99-.46-3.47-3.12-5.18-4.79,1.72-1.65,3.19-3.92,5.24-4.78,1.98-.82,4.57-.32,6.88-.17,5.32,.33,10.45,.43,12.09-6.7Z"/><path class="e" d="M58.84,18.43c-4.83-.06-8.84-4.12-8.86-8.94-.01-5.02,4.31-9.19,9.31-8.98,4.83,.2,8.74,4.38,8.61,9.19-.13,4.83-4.25,8.8-9.07,8.74Z"/><path class="d" d="M57.95,32.84c1.68,7.62,6.65,8.45,12.69,7.65,1.14-.15,2.61-.42,3.42,.13,1.47,.98,3.55,2.54,3.54,3.85,0,1.32-2.14,3.63-3.51,3.76-4.77,.46-9.63,.4-14.42,.08-3.12-.21-6.18-5.9-5-8.86,.91-2.28,2.18-4.41,3.29-6.61Z"/></g></g></g></svg>