<?xml version="1.0" encoding="UTF-8"?><svg xmlns="http://www.w3.org/2000/svg" viewBox="0 0 81.69 50.93"><defs><style>.d{fill:#cc3d38;}</style></defs><g id="a"/><g id="b"><g id="c"><g><path class="d" d="M23.57,.85V37.76c-10.65,2.66-12.01,1.68-12.03-8.41-.01-6.38,0-12.75,0-19.13,0-10.8,.38-11.11,12.03-9.37Z"/><path class="d" d="M58.54,.96c10.84-2.08,11.58-1.5,11.59,9.07,0,7.69,.24,15.39-.16,23.05-.12,2.21-2.08,4.32-3.2,6.48l-2.52-.87c-.34-3.84-.67-7.68-1.01-11.53h-.67l-1.98,11.59-2.05-.27V.96Z"/><path class="d" d="M39.12,17.63c-4.45-.43-8.9-.85-13.35-1.28l.11-2.09h29.77v10.79H26.43q-.43-5.53,12.69-7.43Z"/><path class="d" d="M9.76,19.09c0,2.3,.47,4.74-.14,6.87-.57,1.98-2.29,3.62-3.5,5.42-1.97-1.78-5.13-3.26-5.64-5.39-.93-3.87-.24-8.12-.3-12.21-.06-4.03,1.72-6.88,5.82-5.88,1.63,.4,2.86,3.68,3.65,5.87,.57,1.59,.11,3.54,.11,5.33Z"/><path class="d" d="M71.91,19.32c0-2.3-.44-4.72,.14-6.87,.48-1.77,2.16-3.22,3.31-4.82,2,1.45,5.42,2.66,5.72,4.41,.81,4.72,.82,9.75,.06,14.48-.3,1.85-3.48,3.24-5.36,4.84-1.29-1.71-3.12-3.26-3.72-5.19-.65-2.1-.15-4.56-.15-6.86Z"/><path class="d" d="M63.5,50.93h-26.96l-.05-.98h27l.02,.98Z"/></g></g></g></svg>