<?xml version="1.0" encoding="UTF-8"?><svg xmlns="http://www.w3.org/2000/svg" viewBox="0 0 86.19 56.78"><defs><style>.d{fill:#cc3d38;}</style></defs><g id="a"/><g id="b"><g id="c"><g><path class="d" d="M56.47,31.17c-9.02,3.59-17.94,7.19-26.91,10.68-6.13,2.38-12.13,1.96-19.01-1.76,8.25-4.79,15.9-9.23,23.46-13.62-.08-.61-.02-1-.18-1.27-5.94-10.75-5.9-10.6-17.8-7.26-3.09,.87-7.55,4.76-9.46-.42-1.68-4.54,3.87-4.86,6.58-6.45,4.26-2.49,8.69-4.75,13.24-6.64,1.5-.63,4.32-.55,5.3,.44,8.57,8.77,16.87,17.82,24.78,26.29Z"/><path class="d" d="M86.19,50.62c-2.09,1.04-3.57,2.28-5.12,2.38-1.23,.08-2.55-1.25-3.83-1.96-10.42-5.76-20.96-6.98-32.04-1.63-5.42,2.61-11.06,5.05-16.86,6.48-9.12,2.25-17.87,.24-25.58-5.17-1.5-1.05-1.87-3.74-2.76-5.68,2.03,.03,4.52-.7,6.01,.22,9.01,5.54,18.14,6.06,27.83,2.11,6.92-2.82,13.82-6.14,21.06-7.63,10.13-2.09,19.48,1.63,28.06,7.1,.99,.63,1.6,1.85,3.23,3.8Z"/><path class="d" d="M66.75,0c6.24-.13,11.6,5.08,11.73,11.4,.13,6.31-5.03,11.73-11.28,11.86-6.23,.13-11.6-5.08-11.73-11.41C55.34,5.55,60.5,.13,66.75,0Z"/></g></g></g></svg>