<?xml version="1.0" encoding="UTF-8"?><svg xmlns="http://www.w3.org/2000/svg" viewBox="0 0 59.6 91.58"><defs><style>.d{fill:#cc3d38;}</style></defs><g id="a"/><g id="b"><g id="c"><g><path class="d" d="M21.54,34.91c-5.63,2.18-9.98,4.8-11.63,10.56-.63,2.21-1.54,4.52-2.96,6.27-.93,1.13-3.56,2.24-4.45,1.71-1.32-.78-2.75-3.23-2.45-4.62,2.85-13.36,11.92-21.66,23.98-26.4,9.39-3.68,14.95,1.96,12.58,11.74-.51,2.1-.87,4.27-1.66,6.26-3.46,8.75-2.34,16.29,2.75,24.65,3.78,6.21,4.32,14.51,5.68,21.99,.24,1.31-2.47,4.27-4.08,4.48-1.62,.21-4.25-1.66-5.2-3.32-1.25-2.21-1.54-5.08-1.81-7.71-.77-7.69-4.22-13.88-10.13-18.73-4.26-3.5-5.19-7.69-3.6-12.94,1.33-4.4,1.96-9.01,2.98-13.95Z"/><path class="d" d="M17.53,61.22c2.19,2.74,4.69,4.7,5.5,7.2,.79,2.45,.74,5.98-.51,8.11-2.85,4.83-6.4,9.35-10.26,13.43-1.18,1.25-4.73,1.55-6.43,.72-2.77-1.34-2.77-4.25-.98-6.85,.38-.55,.8-1.06,1.21-1.59,2.34-3.02,5.07-5.82,6.92-9.12,1.8-3.21,2.7-6.92,4.55-11.89Z"/><path class="d" d="M43.63,8.87c.05,4.82-3.93,8.93-8.75,9.05-5.01,.12-9.27-4.11-9.17-9.13C25.8,3.97,29.88-.03,34.71,0c4.83,.03,8.88,4.05,8.92,8.87Z"/><path class="d" d="M42.25,29.78c2.43,7.14,7.92,8.59,13.4,10.06,2.74,.74,4.72,2.33,3.66,5.35-1.03,2.91-3.49,3.19-6.2,2.16-1.24-.47-2.54-.76-3.82-1.12-10.67-3.06-11.41-4.54-7.04-16.45Z"/></g></g></g></svg>