<?xml version="1.0" encoding="UTF-8"?><svg xmlns="http://www.w3.org/2000/svg" viewBox="0 0 100 100"><defs><style>.d{fill:#fff;}.e{fill:#cc3d38;}</style></defs><g id="a"/><g id="b"><g id="c"><g><path class="d" d="M58.98,0h41.02c0,33.33,0,66.67,0,100-17.34,0-34.69,0-52.03,0,.47-2.88,1.46-5.78,1.33-8.62-.44-9.58-2.37-19.18,1.15-29.04,3.9,1.75,7.74,3.47,12.16,5.45-2.98,2.98-5.62,5.25-7.78,7.92-1.21,1.5-1.63,3.64-2.4,5.5,2.12-.25,4.6,.12,6.27-.88,3.84-2.28,7.34-5.16,10.9-7.9,5.56-4.28,5.6-5.61,.46-10.35-.73-.68-1.41-1.52-2.28-1.92-6.87-3.22-8.21-8.89-6.97-15.64,.41-2.22,.98-4.48,1.95-6.5,2.02-4.18,4.68-8.08,6.44-12.36,.85-2.05,1.1-5.1,.17-6.99C66.25,12.27,62.49,6.2,58.98,0Z"/><path class="d" d="M44.97,100H0V0H41.97c-1.88,2.29-4.01,4.43-5.61,6.91-10.86,16.88-12.26,11.45,.22,30.36,1.36,2.06,2.29,4.77,2.4,7.23,.52,10.95,.13,21.97,1.14,32.87,.71,7.63,3.17,15.09,4.85,22.63Z"/><path class="e" d="M44.97,100c-1.68-7.54-4.13-15-4.85-22.63-1.02-10.9-.62-21.92-1.14-32.87-.12-2.46-1.04-5.17-2.4-7.23-12.48-18.91-11.08-13.48-.22-30.36C37.95,4.43,40.08,2.29,41.97,0h2c.07,2.08,.84,4.49,.05,6.17-1.89,4.03-4.58,7.68-6.83,11.55-2.59,4.46,2.75,15.43,7.83,16.23,10.1,1.58,12.87,.24,16.65-9.24,.91-2.3,.72-5.48-.07-7.91-1.21-3.75-3.57-7.11-5.01-10.81-.7-1.8-.45-3.98-.63-5.99h3c3.52,6.2,7.28,12.27,10.4,18.66,.92,1.89,.67,4.94-.17,6.99-1.77,4.28-4.42,8.18-6.44,12.36-.97,2.01-1.54,4.28-1.95,6.5-1.24,6.75,.1,12.42,6.97,15.64,.87,.41,1.55,1.25,2.28,1.92,5.14,4.74,5.11,6.07-.46,10.35-3.56,2.74-7.05,5.62-10.9,7.9-1.68,.99-4.16,.63-6.27,.88,.77-1.85,1.19-4,2.4-5.5,2.16-2.66,4.8-4.94,7.78-7.92-4.42-1.98-8.26-3.7-12.16-5.45-3.52,9.86-1.58,19.46-1.15,29.04,.13,2.85-.86,5.75-1.33,8.62h-3Z"/><path class="d" d="M55.97,0c.18,2.01-.08,4.19,.63,5.99,1.44,3.69,3.8,7.06,5.01,10.81,.78,2.43,.98,5.61,.07,7.91-3.78,9.49-6.55,10.82-16.65,9.24-5.08-.79-10.42-11.77-7.83-16.23,2.25-3.87,4.94-7.52,6.83-11.55,.79-1.68,.01-4.09-.05-6.17h12.01Zm-5.98,31.96c4.34-.01,7.96-3.65,7.94-7.98-.02-4.35-3.64-7.95-7.99-7.94-4.36,.01-7.95,3.62-7.94,7.98,.01,4.35,3.64,7.95,7.98,7.94Z"/><path class="e" d="M49.99,31.96c-4.35,.01-7.97-3.59-7.98-7.94-.01-4.36,3.58-7.97,7.94-7.98,4.35-.01,7.97,3.59,7.99,7.94,.02,4.34-3.6,7.97-7.94,7.98Z"/></g></g></g></svg>